<svg width="133" height="284" viewBox="0 0 133 284" fill="none" xmlns="http://www.w3.org/2000/svg">
<path d="M36.6552 283.622V124.025H0.773987V80.2947H36.6552V73.5669C36.6552 58.1181 39.7699 45.0363 45.9993 34.3218C52.4779 23.358 61.4482 15.0107 72.9103 9.27961C84.3724 3.54857 97.9525 0.683052 113.651 0.683052C116.641 0.683052 119.88 0.932216 123.368 1.43056C127.106 1.67975 130.221 2.05352 132.713 2.55187V44.7871C130.221 44.2888 127.854 44.0396 125.611 44.0396C123.618 43.7904 121.749 43.6659 120.005 43.6659C109.041 43.6659 100.569 46.1576 94.5887 51.1411C88.6085 55.8755 85.6183 63.3507 85.6183 73.5669V80.2947H130.844V124.025H85.6183V283.622H36.6552Z" fill="url(#paint0_linear_1_10)"/>
<defs>
<linearGradient id="paint0_linear_1_10" x1="-6.233" y1="37.4902" x2="138.578" y2="42.4488" gradientUnits="userSpaceOnUse">
<stop stop-color="#121212"/>
<stop offset="1" stop-color="#202020"/>
</linearGradient>
</defs>
</svg>
