<svg width="214" height="279" viewBox="0 0 214 279" fill="none" xmlns="http://www.w3.org/2000/svg">
<path d="M0.214081 278.622V0.168182H103.747C122.684 0.168182 139.379 3.65665 153.831 10.6336C168.532 17.3613 179.994 27.3284 188.217 40.5347C196.44 53.4918 200.551 69.3145 200.551 88.0026C200.551 107.189 195.942 123.51 186.722 136.966C177.752 150.421 165.542 160.388 150.093 166.867L214.007 278.622H156.447L88.0485 156.401L120.94 175.837H51.0459V278.622H0.214081ZM51.0459 130.985H104.494C113.714 130.985 121.687 129.241 128.415 125.753C135.143 122.015 140.375 116.907 144.113 110.428C147.851 103.95 149.72 96.4746 149.72 88.0026C149.72 79.2815 147.851 71.8062 144.113 65.5768C140.375 59.0983 135.143 54.1147 128.415 50.6263C121.687 46.8887 113.714 45.0198 104.494 45.0198H51.0459V130.985Z" fill="url(#paint0_linear_1_13)"/>
<defs>
<linearGradient id="paint0_linear_1_13" x1="-11.14" y1="36.3918" x2="223.043" y2="49.5948" gradientUnits="userSpaceOnUse">
<stop stop-color="#121212"/>
<stop offset="1" stop-color="#202020"/>
</linearGradient>
</defs>
</svg>
