<svg width="132" height="253" viewBox="0 0 132 253" fill="none" xmlns="http://www.w3.org/2000/svg">
<path d="M107.58 252.865C84.6561 252.865 66.84 246.635 54.1321 234.176C41.6733 221.468 35.4439 203.652 35.4439 180.728V91.025H0.31012V47.2947H4.04778C14.0148 47.2947 21.7392 44.6783 27.2211 39.4457C32.703 34.213 35.4439 26.6131 35.4439 16.6461V0.94799H84.4069V47.2947H131.127V91.025H84.4069V178.112C84.4069 184.84 85.5282 190.571 87.7708 195.305C90.2626 200.039 94.0002 203.652 98.9837 206.144C104.216 208.636 110.82 209.882 118.793 209.882C120.537 209.882 122.531 209.757 124.773 209.508C127.265 209.259 129.632 209.01 131.875 208.761V250.622C128.386 251.12 124.4 251.619 119.914 252.117C115.429 252.615 111.318 252.865 107.58 252.865Z" fill="url(#paint0_linear_1_12)"/>
<defs>
<linearGradient id="paint0_linear_1_12" x1="-6.67702" y1="33.7195" x2="137.681" y2="39.2555" gradientUnits="userSpaceOnUse">
<stop stop-color="#121212"/>
<stop offset="1" stop-color="#202020"/>
</linearGradient>
</defs>
</svg>
