<svg width="211" height="287" viewBox="0 0 211 287" fill="none" xmlns="http://www.w3.org/2000/svg">
<path d="M43.4514 286.224C37.9695 286.224 32.6123 285.726 27.3796 284.729C22.1469 283.981 17.4126 282.611 13.1766 280.617V239.503C16.4159 240.251 20.278 240.998 24.7632 241.746C29.4975 242.494 33.8582 242.867 37.845 242.867C49.0579 242.867 57.1561 240.251 62.1396 235.018C67.3723 229.786 71.9821 222.933 75.9689 214.461L89.4244 183.065L88.6768 224.179L0.0948486 0.294678H52.7955L114.84 165.498H96.1522L157.823 0.294678H210.898L122.316 224.179C117.083 237.385 110.729 248.598 103.254 257.818C95.7784 267.037 87.0572 274.014 77.0901 278.749C67.3723 283.732 56.1594 286.224 43.4514 286.224Z" fill="url(#paint0_linear_1_9)"/>
<defs>
<linearGradient id="paint0_linear_1_9" x1="-11.1004" y1="37.4908" x2="219.864" y2="49.9945" gradientUnits="userSpaceOnUse">
<stop stop-color="#121212"/>
<stop offset="1" stop-color="#202020"/>
</linearGradient>
</defs>
</svg>
